<?xml version="1.0" encoding="utf-8"?>
<svg xmlns="http://www.w3.org/2000/svg" viewBox="0 0 50 50" width="100" height="100">
  <path d="M46.574219 3.425781C45.625 2.476563 44.378906 2 43.132813 2C41.886719 2 40.640625 2.476563 39.691406 3.425781C39.691406 3.425781 39.621094 3.492188 39.53125 3.585938C39.523438 3.59375 39.511719 3.597656 39.503906 3.605469L4.300781 38.804688C4.179688 38.929688 4.089844 39.082031 4.042969 39.253906L2.035156 46.742188C1.941406 47.085938 2.039063 47.453125 2.292969 47.707031C2.484375 47.898438 2.738281 48 3 48C3.085938 48 3.171875 47.988281 3.257813 47.964844L10.746094 45.957031C10.917969 45.910156 11.070313 45.820313 11.195313 45.695313L46.394531 10.5C46.40625 10.488281 46.410156 10.472656 46.417969 10.460938C46.507813 10.371094 46.570313 10.308594 46.570313 10.308594C48.476563 8.40625 48.476563 5.324219 46.574219 3.425781 Z M 45.160156 4.839844C46.277344 5.957031 46.277344 7.777344 45.160156 8.894531C44.828125 9.222656 44.546875 9.507813 44.304688 9.75L40.25 5.695313C40.710938 5.234375 41.105469 4.839844 41.105469 4.839844C41.644531 4.296875 42.367188 4 43.132813 4C43.898438 4 44.617188 4.300781 45.160156 4.839844 Z M 5.605469 41.152344L8.847656 44.394531L4.414063 45.585938Z" fill="#2196F3" />
</svg>