<?xml version="1.0" encoding="utf-8"?>
<svg xmlns="http://www.w3.org/2000/svg" viewBox="0 0 48 48" width="30" height="30">
  <path d="M24 4C12.972066 4 4 12.972074 4 24C4 35.027926 12.972066 44 24 44C35.027934 44 44 35.027926 44 24C44 12.972074 35.027934 4 24 4 z M 23.5 11C24.329 11 25 11.671 25 12.5L25 13.542969C27.267 13.751969 29.208547 15.3345 29.810547 17.5625C30.026547 18.3625 29.553906 19.186344 28.753906 19.402344C27.949906 19.615344 27.129109 19.144703 26.912109 18.345703C26.619109 17.259703 25.627 16.5 24.5 16.5L22.75 16.5C21.233 16.5 20 17.733 20 19.25C20 20.767 21.233 22 22.75 22L24.75 22C28.196 22 31 24.804 31 28.25C31 31.612 28.33 34.354328 25 34.486328L25 35.5C25 36.329 24.329 37 23.5 37C22.671 37 22 36.329 22 35.5L22 34.457031C19.712 34.247031 17.765734 32.645625 17.177734 30.390625C16.968734 29.588625 17.448 28.769547 18.25 28.560547C19.055 28.352547 19.871078 28.830813 20.080078 29.632812C20.367078 30.732813 21.360047 31.5 22.498047 31.5L24.748047 31.5C26.540047 31.5 27.998047 30.042 27.998047 28.25C27.998047 26.458 26.542 25 24.75 25L22.75 25C19.58 25 17 22.42 17 19.25C17 16.334 19.184 13.923687 22 13.554688L22 12.5C22 11.671 22.671 11 23.5 11 z" fill="#FFFFFF" />
</svg>